<?xml version="1.0" encoding="UTF-8"?>
<!DOCTYPE svg PUBLIC "-//W3C//DTD SVG 1.1//EN" "http://www.w3.org/Graphics/SVG/1.1/DTD/svg11.dtd">
<!-- Creator: CorelDRAW 2021 (64 Bit) -->
<svg xmlns="http://www.w3.org/2000/svg" xml:space="preserve" width="330mm" height="483mm" version="1.1" style="shape-rendering:geometricPrecision; text-rendering:geometricPrecision; image-rendering:optimizeQuality; fill-rule:evenodd; clip-rule:evenodd"
viewBox="0 0 33000 48300"
 xmlns:xlink="http://www.w3.org/1999/xlink"
 xmlns:xodm="http://www.corel.com/coreldraw/odm/2003">
 <defs>
  <style type="text/css">
   <![CDATA[
    .str1 {stroke:#F2C694;stroke-width:20;stroke-miterlimit:22.9256}
    .str0 {stroke:white;stroke-width:20;stroke-miterlimit:22.9256}
    .fil11 {fill:#121516}
    .fil10 {fill:#151616}
    .fil7 {fill:#15191A}
    .fil8 {fill:#191A1A}
    .fil12 {fill:#191C1C}
    .fil0 {fill:#3C291C}
    .fil16 {fill:#F0C18A}
    .fil17 {fill:#F2C591}
    .fil5 {fill:#F2C594}
    .fil2 {fill:#F2C695}
    .fil3 {fill:#F3C596}
    .fil15 {fill:#FAF6EE}
    .fil9 {fill:#FAF8F8}
    .fil14 {fill:#FBF8F3}
    .fil6 {fill:#FBFAFA}
    .fil13 {fill:#FCF7F1}
    .fil4 {fill:#FCFBFB}
    .fil1 {fill:#FCFCFC}
   ]]>
  </style>
 </defs>
 <g id="Camada_x0020_1">
  <metadata id="CorelCorpID_0Corel-Layer"/>
  <g id="_2636815304000">
   <path class="fil0" d="M23259.97 19392.48c-825.49,-188.66 -1534.42,-753.35 -226.9,-1019.12 385.19,-78.3 812.43,-113.75 1205.08,-140.33 429.7,-29.08 867.06,-52.06 1297.68,-54.11 228.54,11.63 648.81,-32.52 851.76,51.45 -75.88,10.03 -234.9,1.64 -326.07,4.12 -627.17,17.04 -1550.58,103.31 -2129.59,245.12 -193.35,47.36 -921.14,232.16 -767.89,545.89 64.21,131.44 259.77,233.06 389.19,289.48 81.09,35.35 161.89,63.96 245.9,91.37 61.91,20.2 204.58,52.47 250.18,80.91l-26.01 27.96c-237.61,-1.96 -531.88,-68.76 -763.33,-122.74zm2360.51 -1635.59c-4.81,21.95 -57.23,117.69 -71.46,141.12 -40.1,66 -71.22,67.65 -144.1,70.27 -140.03,5.04 -279.67,10.18 -419.8,12.66 -140.97,2.5 -281.57,4.04 -422.58,4.3 -179.02,0.33 -214.92,37.25 -310.9,-120.72 -118.87,-195.62 2.7,-157.51 168.65,-157.68l849.79 -8.46c69.05,-1.33 138.45,-2.86 207.48,-4.94 47.14,-1.43 161.22,-20.04 142.92,63.45zm-3645.12 401.36l-0.28 1.05c-15.57,20.26 -43.36,-259.54 -43.07,-288.67 0.97,-96.74 15.74,-196.36 45.44,-288.54 46.95,-145.67 172.8,-340.61 350.75,-313.98 165.28,24.72 255.37,229.01 295.34,371 59.31,210.73 60.02,381.71 20.81,595.76l-22.53 -264.6c-11.67,-83.88 -28.76,-154.75 -53.19,-235.54 -35.7,-118.05 -115.75,-288.03 -238.96,-334.03 -155.17,-57.94 -266.31,125.57 -306.31,247.6 -62.18,189.75 -54.96,315.51 -48,509.95zm1016.2 -1002.9c-0.14,-70.24 500.62,42.14 559.93,55.94 84.31,19.63 177.88,43.51 258.42,74.84 48,18.68 187.55,98.6 173.65,160.14 -13.84,61.28 -521.75,-10.3 -593.94,-20.36 -78.08,-10.88 -201.1,-22.14 -264.8,-68.44 -35.07,-25.49 -133.18,-161.77 -133.26,-202.12zm526.42 -23.13c-25.89,0.98 -601.8,-97.5 -635.89,-64.56 -22.19,30.39 102.28,228.12 128.17,266.16 70.07,102.96 141.3,132.89 261.03,153.54 120.21,20.74 243.02,36.18 364.18,50.44 88.26,10.39 290.81,24.19 364.65,49.71 1.99,24.45 -575.64,-10.85 -629.71,-15.98 -207.9,-19.74 -342.55,-10.81 -460.14,-202.64 -90.58,-147.76 -131.18,-295.94 -312.47,-349.98 -158.32,-47.18 -405.61,-70.97 -574.66,-93.39 87.59,-99.46 -14.33,-99.2 133.59,-83.3 204.75,22.02 412.43,55.47 614.75,92.33 275.93,50.28 482.57,109.51 746.5,197.67zm-2333.61 -332.24c120.62,-11.26 283.95,-1.18 406.85,4.94 111.12,5.54 248.1,-5.7 313.89,102.43l-720.74 -107.37zm265.04 -177.08c-23.09,-136.68 169.66,-131.88 255.81,-137.58 151.28,-10.02 211.23,-30.78 254.41,131.26 38.65,145.08 52.8,130.16 -213.83,103.98 -76.24,-7.49 -280.08,-1.05 -296.39,-97.66zm-382.89 -341.34c84.8,-903.05 812.06,-1556.61 1715.71,-1569.59 897.39,-12.89 1670.08,626.82 1750.21,1532.91 45.96,18.33 268.25,194.45 321.82,236.68 62.9,49.58 24.31,11.97 94.19,10.44 67.59,-1.48 162.4,16.36 199.5,81.98 33.75,59.7 -8.53,81.54 -9.49,104.31 30.64,14.55 208.76,43 262.58,57.48 84.78,22.82 165.36,46.15 247.57,77.47 149.89,57.12 287.25,134.9 394.72,255.48 189.3,212.4 243.09,807.97 98.58,1039.18 3.22,-169.35 32.14,-281.96 -6.86,-460.68 -23.77,-108.88 -68.95,-86.09 -158.05,-81.26 -71.13,3.86 -175.11,11.62 -243.8,7.83 46.26,-25.27 201.2,-61.12 266.83,-86.47 51.95,-20.06 88.61,-30.49 78.66,-95.86 -5.05,-33.18 -24.89,-114.45 -44.34,-134.36 -5.26,80.76 16.39,133.11 -83.97,160.06 -43.21,11.61 -176.7,43.88 -213.5,27.35 -40.19,-54.58 27.24,-154.09 75.43,-181.51 42.8,-24.35 148.66,-72.18 168.79,-111.49 -13.94,-61.97 -216.82,-181.45 -277.03,-211.1 -100.58,-49.53 -252.44,-106.08 -362.31,-125.27 -9.03,8.59 275.98,118.65 335.53,254.35 47.26,107.68 -56.75,130.05 -135.87,133.62 -94.84,4.27 -189.03,9.65 -284.01,12.53 -193.62,5.87 -387.36,7.72 -581.06,7.57 -139.93,-0.1 -443.27,21.39 -559.95,-28.08 -569.56,-241.46 -1296.7,-354.85 -1907.21,-449.88 -60.05,-135.67 -102.95,-285.52 -167.47,-426.3 -74.34,-162.19 -112.66,-289.73 -320.53,-274.44 -398.46,29.33 -506.72,319.15 -807.45,378.57 30.87,-26.04 146.97,-111.81 152.78,-141.52zm-1335.1 454.34c-39.81,-54.94 -21.6,-126.06 44.52,-140.13 36.01,-7.67 1030.44,-2.62 1144.8,-2.45 53.05,0.08 166.45,-12.68 205.53,23.15 59.37,54.44 14.31,111.46 -35.14,146.16 25.59,1.63 20.73,61.55 22.81,85.47 2.65,30.44 8.54,66.29 12.52,97.3 8.13,63.41 17.22,132.55 27.76,193.7l-286.3 7.68c125.47,-8.11 274.25,-1.4 402.37,-1.64 103.4,-0.19 305.91,-11.23 398,1.97 56.6,8.12 91.51,68.01 68.62,121.27 -25.98,60.44 -91.98,51.94 -145.53,52.09 -132.91,0.37 -269.32,-3.52 -401.77,0.49l43.5 189.13c101.49,3.59 207.9,1.69 309.77,1.17 119.27,-0.61 150.45,105.07 72.41,155.69 -40.19,26.08 -527.66,13.15 -613.26,13.18 -208.64,0.1 -417.29,0.01 -625.93,-0.06 -104.32,-0.02 -208.65,-0.06 -312.97,-0.12 -89.84,-0.06 -204.76,25.54 -272.32,-42.66 11.77,81.17 260.35,54.57 329.22,54.57 384.78,0 769.55,0 1154.33,0l93.83 223.9c-44.08,37.04 -201.07,19.97 -272.67,19.97l-585.29 0c-53.15,-0.01 -87.65,-9.72 -116.46,29.87 -23.74,32.61 -1.14,89.56 27.04,100.2l26.84 0c-33.69,-19.39 -89.2,-49.1 -38.67,-101.22 33.13,-34.17 104.46,-20.61 150.02,-20.83l1024.26 0.06c46.09,0.18 110.13,-4.04 113.84,57.33 3.95,65.39 -53.94,67.41 -101.6,67.74 -112.25,0.78 -224.89,-2.43 -337.4,-2.23 -227.15,0.42 -455.68,-1.39 -682.84,-3.86 16.7,23.87 337.99,11.13 390.19,11.13 132.77,0 265.55,0.1 398.32,0.01 111.56,-0.07 72.34,-4.88 144.23,54.93 29.62,24.64 89.92,60.02 127.94,71.22 50.47,14.88 96.86,43.75 149.45,49.72 22.18,2.51 148.83,28.76 167.74,35.48l-166.08 -2.19 -0.53 -11.28 32.3 -4.59c-47.6,-6.42 -47.34,17.54 -117.47,13.16 -27.37,-1.71 -84.96,4.9 -122.16,4.9l-670.64 0c-49.77,0 -87.53,-7.72 -130.07,-8.13 88.67,207.63 420.74,496.36 588.09,667.84 410.54,420.66 844.07,837.64 1257.45,1258.36 83.91,85.41 229.29,266.76 348.26,275.85 141.32,10.8 272.2,-166.05 366.22,-259.84 419.68,-418.66 832.37,-846.12 1254.26,-1261.68 105.47,-103.89 210.97,-209.73 313.26,-316.73 155.83,-163.02 142.93,-210.6 378.95,-251.06 372.1,-63.79 737.66,-143.87 1118.8,-141.19l0 -32.52c-33.34,0.04 -38.77,-11.19 -57.27,-15.48 -14.74,-3.42 -55.3,-9.31 -73.82,-11.94 -34.82,-4.95 -135.68,-2.38 -143.07,-28.28 -4.33,-15.21 48.4,-86.53 56.36,-109.25 28.96,-82.62 37.3,-225.06 42.64,-310.83 1.96,-31.5 13.22,-40.06 6.3,-73.9 -7.92,-38.7 -5.55,-46.59 -5.25,-85.04 0.37,-47.33 -37.61,-254.29 -56.44,-297.18 -91.06,-207.31 -124.62,-260.45 -319.85,-383.31 -74.47,-46.86 -155.62,-83.45 -238.78,-110.77 -29.4,-9.66 -264.98,-84.13 -267.38,-86.23 -15.25,-23.55 -8.36,-248.6 -10.1,-294.7 -9.17,-243.92 -82.36,-546.72 -174.46,-768.55 -371.97,-895.9 -1246.44,-1526.03 -2220.44,-1564.68 -677.29,-26.88 -1326.6,200.63 -1826.67,660.62 -471.84,434.03 -809.02,1061.61 -808.54,1711.46 180.19,0 365.51,-4.25 544.96,-0.32 38.26,0.84 78.17,8.45 125.68,8.45 106.32,0 185.72,-20.9 214.31,58.02 7,19.31 27.8,89.2 28.88,107.87l-54.7 24.47c-55.21,-33.41 -25.04,-78.94 -149.26,-65.71 -54.2,5.77 -580.13,1.35 -661.1,1.35 -61.19,0 -397.69,8.5 -428.74,1.87 -43.14,-9.23 -40.81,6.11 -89.94,-3.73 -24.53,-4.91 -68.56,2.17 -89.86,15.17 -46.64,28.48 -70.07,128.78 -15.81,140.34z"/>
   <path class="fil1" d="M22683.88 16006.6c292.9,-5.77 582.72,-2.75 875.26,13.94 275.61,15.73 492.91,13.16 736.3,158.12 181.74,108.24 355.67,241.16 519.49,374.71 176.84,144.17 210.25,153.51 41.22,147.94 -144.86,-4.78 -298.21,-0.28 -443.99,-0.13 -583.76,0.62 -1201.85,19.62 -1781.73,-8.06 -171.46,-8.19 -214.88,2.76 -290.66,-156.18 -48.01,-100.7 -96.83,-201.06 -146.83,-300.79 -76.52,-152.64 -157.19,-208.64 64.45,-212.5 140.61,-2.45 284.39,-14.25 426.49,-17.05zm-1327.29 30.55c-47.01,33.7 -111.79,64.47 -166.32,103.3 -83.36,59.35 -72.95,84.53 -123.75,141.11 -5.81,29.71 -121.91,115.48 -152.78,141.52 300.73,-59.42 408.99,-349.24 807.45,-378.57 207.87,-15.29 246.19,112.25 320.53,274.44 64.52,140.78 107.42,290.63 167.47,426.3 610.51,95.03 1337.65,208.42 1907.21,449.88 116.68,49.47 420.02,27.98 559.95,28.08 193.7,0.15 387.44,-1.7 581.06,-7.57 94.98,-2.88 189.17,-8.26 284.01,-12.53 79.12,-3.57 183.13,-25.94 135.87,-133.62 -59.55,-135.7 -344.56,-245.76 -335.53,-254.35 109.87,19.19 261.73,75.74 362.31,125.27 60.21,29.65 263.09,149.13 277.03,211.1 -20.13,39.31 -125.99,87.14 -168.79,111.49 -48.19,27.42 -115.62,126.93 -75.43,181.51 36.8,16.53 170.29,-15.74 213.5,-27.35 100.36,-26.95 78.71,-79.3 83.97,-160.06 19.45,19.91 39.29,101.18 44.34,134.36 9.95,65.37 -26.71,75.8 -78.66,95.86 -65.63,25.35 -220.57,61.2 -266.83,86.47 68.69,3.79 172.67,-3.97 243.8,-7.83 89.1,-4.83 134.28,-27.62 158.05,81.26 39,178.72 10.08,291.33 6.86,460.68 144.51,-231.21 90.72,-826.78 -98.58,-1039.18 -107.47,-120.58 -244.83,-198.36 -394.72,-255.48 -82.21,-31.32 -162.79,-54.65 -247.57,-77.47 -53.82,-14.48 -231.94,-42.93 -262.58,-57.48 0.96,-22.77 43.24,-44.61 9.49,-104.31 -37.1,-65.62 -131.91,-83.46 -199.5,-81.98 -69.88,1.53 -31.29,39.14 -94.19,-10.44 -53.57,-42.23 -275.86,-218.35 -321.82,-236.68l-272.98 -176.26c-246.65,-105.41 -404.37,-122.27 -668.62,-149.24 -254.59,-25.99 -516.26,-40.99 -772.12,-45.91 -457.36,-8.78 -1039.53,-21.62 -1462.13,163.68z"/>
   <path class="fil0" d="M22683.88 16006.6c-142.1,2.8 -285.88,14.6 -426.49,17.05 -221.64,3.86 -140.97,59.86 -64.45,212.5 50,99.73 98.82,200.09 146.83,300.79 75.78,158.94 119.2,147.99 290.66,156.18 579.88,27.68 1197.97,8.68 1781.73,8.06 145.78,-0.15 299.13,-4.65 443.99,0.13 169.03,5.57 135.62,-3.77 -41.22,-147.94 -163.82,-133.55 -337.75,-266.47 -519.49,-374.71 -243.39,-144.96 -460.69,-142.39 -736.3,-158.12 -292.54,-16.69 -582.36,-19.71 -875.26,-13.94z"/>
   <path class="fil2" d="M21066.52 16281.56c50.8,-56.58 40.39,-81.76 123.75,-141.11 54.53,-38.83 119.31,-69.6 166.32,-103.3l15.31 -50.62 23.69 -70.86c7.24,-24.61 22.84,-70.58 37.28,-89.85l0.88 -3.64c6.99,-22.28 45.77,-102.77 60.09,-118.01l1.25 -3.92 21.73 -37.54 37.99 -58.32 17.66 -26.08c20.87,-38.46 134.46,-173.99 163.74,-196.78l17.76 -16.24 15.24 -14.59c12.75,-18.83 89.51,-81.03 113.15,-99.24 38.17,-29.41 80.84,-60.55 122.18,-85.51l107.11 -60.46 15.04 -6.79c14.98,-14.06 92.95,-46.99 115.52,-53.64l104.14 -37.79 79.54 -23.01c75.25,-32.01 279.79,-50.53 364.48,-51.45 67.89,-0.73 323.71,14.01 375.33,43.96l31.17 6.32c105.03,23.69 232.94,78.1 327.77,129.28 48.47,26.17 96.76,54.27 141.39,86.22 31.77,22.75 103.28,70.92 126.01,97.25 44.28,43.37 94.55,82.27 134.16,130.19 41.63,50.36 77.79,94.36 116.07,148.2 59.01,83 153.58,252.27 177.37,349.57l5.55 22.58 34.27 122.24 272.98 176.26c-80.13,-906.09 -852.82,-1545.8 -1750.21,-1532.91 -903.65,12.98 -1630.91,666.54 -1715.71,1569.59z"/>
   <path class="fil1" d="M23259.97 19392.48c231.45,53.98 525.72,120.78 763.33,122.74l26.01 -27.96c-45.6,-28.44 -188.27,-60.71 -250.18,-80.91 -84.01,-27.41 -164.81,-56.02 -245.9,-91.37 -129.42,-56.42 -324.98,-158.04 -389.19,-289.48 -153.25,-313.73 574.54,-498.53 767.89,-545.89 579.01,-141.81 1502.42,-228.08 2129.59,-245.12 91.17,-2.48 250.19,5.91 326.07,-4.12 -202.95,-83.97 -623.22,-39.82 -851.76,-51.45 -161.3,22.72 -382.13,16.46 -552.51,26.69 -178.75,10.73 -359.76,23.37 -537.99,40.21 -379.23,35.82 -1571.71,172.53 -1736.17,571.48 -125.9,305.4 366.24,476.35 550.81,575.18z"/>
   <path class="fil3" d="M23259.97 19392.48c-184.57,-98.83 -676.71,-269.78 -550.81,-575.18 164.46,-398.95 1356.94,-535.66 1736.17,-571.48 178.23,-16.84 359.24,-29.48 537.99,-40.21 170.38,-10.23 391.21,-3.97 552.51,-26.69 -430.62,2.05 -867.98,25.03 -1297.68,54.11 -392.65,26.58 -819.89,62.03 -1205.08,140.33 -1307.52,265.77 -598.59,830.46 226.9,1019.12z"/>
   <path class="fil1" d="M25620.48 17756.89c18.3,-83.49 -95.78,-64.88 -142.92,-63.45 -69.03,2.08 -138.43,3.61 -207.48,4.94l-849.79 8.46c-165.95,0.17 -287.52,-37.94 -168.65,157.68 95.98,157.97 131.88,121.05 310.9,120.72 141.01,-0.26 281.61,-1.8 422.58,-4.3 140.13,-2.48 279.77,-7.62 419.8,-12.66 72.88,-2.62 104,-4.27 144.1,-70.27 14.23,-23.43 66.65,-119.17 71.46,-141.12z"/>
   <path class="fil2" d="M19785.26 17622.76l5.55 14.53c67.56,68.2 182.48,42.6 272.32,42.66 104.32,0.06 208.65,0.1 312.97,0.12 208.64,0.07 417.29,0.16 625.93,0.06 85.6,-0.03 573.07,12.9 613.26,-13.18 78.04,-50.62 46.86,-156.3 -72.41,-155.69 -101.87,0.52 -208.28,2.42 -309.77,-1.17 -260.71,2.39 -522.96,-0.25 -783.85,-0.41 -130.06,-0.07 -260.13,-0.07 -390.19,-0.05 -92.81,0.01 -306.5,-37.61 -273.81,113.13z"/>
   <path class="fil2" d="M19731.42 16735.9c52.98,46.82 240.49,27.12 315.45,27.15 116.52,0.05 233.04,-0.29 349.55,0.05 229.21,0.67 466.37,5.48 694.71,-0.47 49.45,-34.7 94.51,-91.72 35.14,-146.16 -39.08,-35.83 -152.48,-23.07 -205.53,-23.15 -114.36,-0.17 -1108.79,-5.22 -1144.8,2.45 -66.12,14.07 -84.33,85.19 -44.52,140.13z"/>
   <path class="fil4" d="M22771.48 16934.55c-202.32,-36.86 -410,-70.31 -614.75,-92.33 -147.92,-15.9 -46,-16.16 -133.59,83.3 169.05,22.42 416.34,46.21 574.66,93.39 181.29,54.04 221.89,202.22 312.47,349.98 117.59,191.83 252.24,182.9 460.14,202.64 54.07,5.13 631.7,40.43 629.71,15.98 -73.84,-25.52 -276.39,-39.32 -364.65,-49.71 -121.16,-14.26 -243.97,-29.7 -364.18,-50.44 -119.73,-20.65 -190.96,-50.58 -261.03,-153.54 -25.89,-38.04 -150.36,-235.77 -128.17,-266.16 34.09,-32.94 610,65.54 635.89,64.56 -263.93,-88.16 -470.57,-147.39 -746.5,-197.67z"/>
   <path class="fil2" d="M19243.5 17086.25c14.63,64.19 86.74,59.33 136.87,59.15 66.32,-0.24 132.75,0.09 199.08,0.14 131.41,0.08 262.85,0.39 394.26,0.17 189.65,-0.33 407.38,3.62 593.64,0.13 58.02,-1.09 103.68,-34.12 91.02,-97.3 -13.88,-69.25 -81.8,-62.67 -135.99,-62.36l-987.64 -0.01c-65.78,0.05 -133.93,-1.86 -199.36,-0.34 -58.44,1.34 -106.45,36.5 -91.88,100.42z"/>
   <path class="fil1" d="M23983.56 17446.27c13.9,-61.54 -125.65,-141.46 -173.65,-160.14 -80.54,-31.33 -174.11,-55.21 -258.42,-74.84 -59.31,-13.8 -560.07,-126.18 -559.93,-55.94 0.08,40.35 98.19,176.63 133.26,202.12 63.7,46.3 186.72,57.56 264.8,68.44 72.19,10.06 580.1,81.64 593.94,20.36z"/>
   <path class="fil5" d="M21189.61 17320.96c132.45,-4.01 268.86,-0.12 401.77,-0.49 53.55,-0.15 119.55,8.35 145.53,-52.09 22.89,-53.26 -12.02,-113.15 -68.62,-121.27 -92.09,-13.2 -294.6,-2.16 -398,-1.97 -128.12,0.24 -276.9,-6.47 -402.37,1.64 -100.95,49.3 -85.38,155.26 2.86,172.12 56.96,10.89 248.2,2.06 318.83,2.06z"/>
   <path class="fil5" d="M20447.65 18065.8l50.38 -2.22 52.84 0.23 24.39 -1.02c227.16,2.47 455.69,4.28 682.84,3.86 112.51,-0.2 225.15,3.01 337.4,2.23 47.66,-0.33 105.55,-2.35 101.6,-67.74 -3.71,-61.37 -67.75,-57.15 -113.84,-57.33l-1024.26 -0.06c-45.56,0.22 -116.89,-13.34 -150.02,20.83 -50.53,52.12 4.98,81.83 38.67,101.22z"/>
   <path class="fil6" d="M21975.36 18158.25c-6.96,-194.44 -14.18,-320.2 48,-509.95 40,-122.03 151.14,-305.54 306.31,-247.6 123.21,46 203.26,215.98 238.96,334.03 24.43,80.79 41.52,151.66 53.19,235.54l22.53 264.6c39.21,-214.05 38.5,-385.03 -20.81,-595.76 -39.97,-141.99 -130.06,-346.28 -295.34,-371 -177.95,-26.63 -303.8,168.31 -350.75,313.98 -29.7,92.18 -44.47,191.8 -45.44,288.54 -0.29,29.13 27.5,308.93 43.07,288.67l0.28 -1.05z"/>
   <path class="fil1" d="M21449.41 16622.9c16.31,96.61 220.15,90.17 296.39,97.66 266.63,26.18 252.48,41.1 213.83,-103.98 -43.18,-162.04 -103.13,-141.28 -254.41,-131.26 -86.15,5.7 -278.9,0.9 -255.81,137.58z"/>
   <path class="fil7" d="M19785.26 17622.76c-32.69,-150.74 181,-113.12 273.81,-113.13 130.06,-0.02 260.13,-0.02 390.19,0.05 260.89,0.16 523.14,2.8 783.85,0.41l-43.5 -189.13c-70.63,0 -261.87,8.83 -318.83,-2.06 -88.24,-16.86 -103.81,-122.82 -2.86,-172.12l286.3 -7.68c-10.54,-61.15 -19.63,-130.29 -27.76,-193.7 -3.98,-31.01 -9.87,-66.86 -12.52,-97.3 -2.08,-23.92 2.78,-83.84 -22.81,-85.47 -228.34,5.95 -465.5,1.14 -694.71,0.47 -116.51,-0.34 -233.03,0 -349.55,-0.05 -74.96,-0.03 -262.47,19.67 -315.45,-27.15 -0.08,58.97 270.17,33.32 319.52,33.32 90.6,0 856.52,-3.89 885.47,1.04 44.05,7.51 31.9,-3.23 73.86,-1.62 20.88,0.8 24.71,5.82 37.77,6.82 20.26,1.55 11.78,-7.77 32.4,-4.51 35.84,19.5 27.13,128.95 37.63,174.87 2.82,12.34 22.2,172.88 22.18,172.92 -28.91,29.89 -170.88,16.65 -223.62,16.24 -58.87,-0.47 -147.98,33.99 -127.55,110.83 19.77,74.31 84.17,85.54 151.75,88.61 77.49,3.51 165.41,-0.24 244.1,-0.24l35.61 158.75c-20.22,0.05 -53.14,7.86 -88.45,7.9 -177.29,0.19 -1254.07,-5.33 -1285.67,2.77 -58.86,15.09 -100.5,92.33 -61.16,119.16z"/>
   <path class="fil8" d="M21371.9 15986.53l-15.31 50.62c422.6,-185.3 1004.77,-172.46 1462.13,-163.68 255.86,4.92 517.53,19.92 772.12,45.91 264.25,26.97 421.97,43.83 668.62,149.24l-34.27 -122.24 15.16 90.69c-66.28,-5.11 -216.11,-70.86 -314.02,-86.73 -169.95,-27.54 -564.47,-74.92 -730.03,-70.68 -88.91,2.27 -282.38,-17.03 -385.54,-16.85 -179.86,0.3 -415.17,-6.04 -589.59,7.94 -209.04,16.75 -322.17,-2.54 -549.48,52.06 -49.81,11.97 -113.51,22.13 -160.73,38.42 -36.01,12.43 -112.51,68.73 -139.06,25.3z"/>
   <path class="fil9" d="M21905.11 16907.35c-65.79,-108.13 -202.77,-96.89 -313.89,-102.43 -122.9,-6.12 -286.23,-16.2 -406.85,-4.94l720.74 107.37z"/>
   <path class="fil7" d="M19243.5 17086.25c-14.57,-63.92 33.44,-99.08 91.88,-100.42 65.43,-1.52 133.58,0.39 199.36,0.34l987.64 0.01c54.19,-0.31 122.11,-6.89 135.99,62.36 12.66,63.18 -33,96.21 -91.02,97.3 -186.26,3.49 -403.99,-0.46 -593.64,-0.13 -131.41,0.22 -262.85,-0.09 -394.26,-0.17 -66.33,-0.05 -132.76,-0.38 -199.08,-0.14 -50.13,0.18 -122.24,5.04 -136.87,-59.15zm59.57 -105.68c-56.74,12.41 -89.75,68.74 -64.48,125.61 25.91,58.27 107.83,44.61 158,45.06 74.76,0.69 1186.02,4.19 1209.87,-1.27 50.58,-11.57 73.54,-73.74 54.51,-120.02 -28.28,-68.79 -89.66,-52.99 -150.87,-53.31l-1007.87 -0.13c-51.39,0 -153.84,-5.85 -199.16,4.06z"/>
   <path class="fil7" d="M24219.64 15923.8c-23.79,-97.3 -118.36,-266.57 -177.37,-349.57 -38.28,-53.84 -74.44,-97.84 -116.07,-148.2 -39.61,-47.92 -89.88,-86.82 -134.16,-130.19 4.52,24.27 102.18,109.44 126.38,134.02 37.71,38.3 82.13,108.95 114.84,149.35l51.99 78.07c17.83,24.81 36.14,58.78 46.21,87.92 9.93,28.69 1.96,-6.31 24.77,40.27 7.08,14.46 12.44,31.71 18.47,46.56 9.4,23.18 22.02,80.89 44.94,91.77z"/>
   <path class="fil7" d="M23792.04 15295.84c-22.73,-26.33 -94.24,-74.5 -126.01,-97.25 -44.63,-31.95 -92.92,-60.05 -141.39,-86.22 -94.83,-51.18 -222.74,-105.59 -327.77,-129.28 8.88,20.04 46.9,24.31 77.23,34.31 26.87,8.86 56.96,19.34 85.45,28.37l192.52 91.99c25.07,13.9 0.71,9.71 35.75,21.15 7.37,2.41 29.65,17.88 34.76,22.15 9.59,8.03 1.2,3.05 15.81,12.64 8.65,5.67 9.12,6.96 16.6,11.85 10.33,6.74 26.72,13.63 35.7,21.2l32.47 24.43c31.04,24.39 46.5,48.46 68.88,44.66z"/>
   <path class="fil8" d="M22425.89 14984.26c40.1,2.66 155.03,-28.14 173.41,-27.9 44.28,0.58 5.44,-8.09 93.81,-7.81 32.32,0.1 9.46,-8.37 97.31,-8.36 27.19,0 76.81,-4.85 99.9,1.71 55.21,15.69 56.23,-1.91 91.13,10.48 21.44,7.61 23.55,2.2 44.85,3.92 22.8,1.83 52.95,20.25 139.4,20.47 -51.62,-29.95 -307.44,-44.69 -375.33,-43.96 -84.69,0.92 -289.23,19.44 -364.48,51.45z"/>
   <path class="fil10" d="M21769.21 15350.7l90.09 -69.44c20.71,-21.53 17.21,-10.76 53.1,-44.45 24.44,-22.95 19.57,-6.84 44.82,-28.34l27.59 -21.19c15.68,-12.87 4.89,7.45 13.21,-11.17 15.41,-4.56 4.6,2.9 6.52,-10.16 -41.34,24.96 -84.01,56.1 -122.18,85.51 -23.64,18.21 -100.4,80.41 -113.15,99.24z"/>
   <path class="fil8" d="M21572.47 15578.31l48.86 -55.41c0.5,-0.7 1.16,-1.7 1.66,-2.4 18.2,-25.54 27.74,-22.94 41.56,-47.86 15.89,-28.66 69.93,-56.61 71.66,-91.11 -29.28,22.79 -142.87,158.32 -163.74,196.78z"/>
   <path class="fil7" d="M22126.69 15098.7c39.76,-0.75 28.26,-12.78 58.1,-20.34 33.21,-8.41 34.11,-22.86 56.18,-25l1.24 -8.3c-22.57,6.65 -100.54,39.58 -115.52,53.64z"/>
   <path class="fil8" d="M21433.75 15822.18c16.28,-7.79 28.84,-50.25 40.62,-68.24 8.41,-12.82 17.88,-31.61 19.47,-49.77 -14.32,15.24 -53.1,95.73 -60.09,118.01z"/>
   <path class="fil10" d="M22004.54 15165.95l13.92 2.48c8.19,-9.86 42.9,-26.54 59.29,-34.53 9.68,-4.72 4.56,-0.46 13.51,-6.81 20.47,-14.53 17.34,-13.06 20.39,-21.6l-107.11 60.46z"/>
   <path class="fil10" d="M21395.59 15915.67l8.21 -0.39c2.08,-22.38 29.04,-51.75 29.07,-89.46 -14.44,19.27 -30.04,65.24 -37.28,89.85z"/>
   <path class="fil7" d="M22242.21 15045.06c31.46,2.83 4.93,-2.58 52.94,-10.79 29.46,-5.04 22.22,-15.67 51.63,-17.38l-0.43 -9.62 -104.14 37.79z"/>
   <path class="fil11" d="M20550.87 18063.81l-52.84 -0.23c3.28,15.86 -4.42,6.78 8.13,10.34l36.58 0c12.43,-3.5 4.34,2.27 8.13,-10.11z"/>
   <path class="fil8" d="M22346.35 15007.27c7.34,1.28 13.51,3.1 21.61,2.34 22.46,-2.08 1.81,-1.58 17.46,-7l40.47 -18.35 -79.54 23.01z"/>
   <path class="fil8" d="M21516.82 15662.71c15.77,0.9 16.07,-14.54 23.22,-26 6.43,-10.31 14.34,-15.57 14.77,-32.32l-37.99 58.32z"/>
   <path class="fil12" d="M21495.09 15700.25c29.19,-8.09 2.83,-6.65 23.49,-24.04l-1.76 -13.5 -21.73 37.54z"/>
   <polygon class="fil10" points="21736.21,15381.53 21753.21,15383.33 21753.97,15365.29 "/>
  </g>
  <g id="_2636815305392">
   <path class="fil13 str0" d="M4582.73 15777.67c-61.57,167.68 -95.68,193.76 -181.42,332.06 -51.21,82.64 -731.26,2122.21 -870.91,2499.71 -24.98,67.52 -68.04,148.65 -43.53,205.74 52.98,23.81 722.19,27.2 804.97,12.22 100.01,-18.08 122.37,-168.32 152.41,-258.6l513.63 -1464.49c28.2,-82.2 31.23,-60.12 47.11,-72.74 109.19,197.11 213.6,420.16 316.42,623.94l467.7 942.58c141.59,289.71 92.58,233.97 694.91,232.29 467.2,-1.31 335.49,50.85 516.45,-426.51 44.9,-118.42 85.46,-227.73 124.55,-346.34 76.03,-230.65 171.17,-459.68 246.95,-694.06 150.4,-465.2 316.66,-945.95 486.23,-1404.48 20.68,-81.18 81.57,-160.68 36.47,-219.18 -62.82,-42.82 -806.18,-31.17 -913.41,-4.13 -23.24,16.93 -276.9,792.97 -312.85,889.9 -28.63,77.23 -259.57,823.43 -318.84,875.52 -119.55,-141.66 -812.72,-1709.5 -937.92,-1764.4 -62.98,-27.62 -352.79,-16.43 -440.06,-16.43 -244.65,0 -225.94,-25.04 -388.86,57.4z"/>
   <path class="fil14 str0" d="M7742.11 17364.52c-62.05,134.71 -46.61,2.68 -155.31,329.36 -65.87,198.01 -382.97,1050.82 -370.77,1123.56 89.63,36.99 395.99,16.49 511.53,16.33 138.78,-0.2 387.44,58.53 448.41,-95.94 62.07,-157.21 213.66,-695.26 283.84,-790.23 550.68,-69.96 1477.77,105.17 1961.91,-106.87 603.06,-264.14 584.57,-956.82 769.06,-1296.04 36.16,-191.22 118.56,-338.77 16.53,-537.17 -73.63,-143.22 -199.59,-228.78 -356.48,-267.99 -210.59,-52.62 -961.81,-21.8 -1224.36,-19.22 -247.29,2.44 -1023.67,-37.9 -1204.14,42.18 -172.74,76.67 -225.46,155.03 -299.2,321.56 -31.59,71.35 -185.08,376.74 -165.78,430.79 174.06,64.97 2155.31,-55.46 2240.39,46.77 55.01,66.1 -41.43,484.13 -231.57,558.5 -99.65,38.97 -1404.9,20.39 -1616.86,20.51 -329.02,0.16 -374.28,41.06 -607.2,223.9z"/>
   <path class="fil15 str0" d="M4329.96 15814.5c29.28,-142.61 -144.35,-94.49 -265.81,-94.57 -885.15,-0.48 -2008.69,-24.09 -2836.49,3.29 -186.13,41.08 -284.69,143.28 -368.64,305.69 -53.6,103.69 -228.19,392.54 -202.73,492.88l1270.03 8.61c-10.37,119.29 -140.14,435.06 -182.76,566.33 -54.8,168.78 -585.74,1668.78 -554.71,1710.31 60.26,50.92 373.43,23.08 472.25,22.8 96.01,-0.26 399.91,29.37 451.11,-38.19 45.49,-60.03 667.4,-2014.77 793.48,-2259.46 249.22,-8.77 820.39,45.39 1015.56,-64.13 146.12,-82.01 302.65,-492.74 408.71,-653.56z"/>
   <path class="fil16 str1" d="M11574.93 17304.52c-47.47,284.34 -467.86,1354.6 -451.15,1518.65 92,17.78 476.64,17.05 566.25,-3.11 65.92,-108.5 124.79,-392.16 173.72,-525.58l128.65 -407.75c3.5,-11.47 15.82,-60.2 17.82,-64.91l33.99 -50.79c2.05,-8.61 8.04,-8.63 12.46,-12.52 13.99,121.45 193.4,886.03 241.8,949.7 146.14,40.56 214.33,-50.76 300.53,-152.05 143.44,-168.58 602.74,-720.21 696.75,-786.9 -44.42,211.32 -317.29,932.3 -309.06,1063.9l579.53 -8.2 680.13 -2174.83 3.73 -114.39c-109.71,-22.58 -540.16,-22.82 -635.01,30.1l-236.85 268.62c-47.25,76.27 -37.49,37.56 -83.6,83.22 -30.73,30.46 -41.71,70.22 -68.31,101.13l-166.52 167.99c-38.35,50.79 -16.45,51.09 -71.77,96.45 -73.95,60.66 -193.22,229.93 -276.9,308.27l-42.91 39.76c-2.35,-3.53 -8.38,7.58 -13.1,10.65 -3.83,-95.87 -51.33,-304.53 -80.4,-399.54 -38.08,-124.55 -60.66,-262.63 -95.3,-390.05 -30.99,-113.94 -39.53,-289.58 -170.35,-318.69 -64.62,-14.38 -404.99,-11.76 -464.64,2.96 -78.87,63.69 -192.11,625.76 -269.49,767.91z"/>
   <path class="fil17 str1" d="M17029.06 17933.26c148.38,-1.19 296.76,-0.96 445.16,-0.52 115.21,0.36 295.73,-33.97 380.99,43.75 10.93,74.83 -17.76,179.99 -65.6,241.1 -64.37,82.23 -149.49,67.07 -248,67.15 -153.52,0.12 -481.12,18.71 -614.83,-3.41l102.28 -348.07zm263.77 -850.63c130.18,-19.31 692.25,-28.99 778.2,24.36 25.28,67.27 -4.12,179.25 -45.53,238.8 -55.68,80.1 -142.55,70.26 -231.86,70.2 -196.83,-0.12 -400.51,-4.01 -598.2,3.36l97.39 -336.72zm-583.22 -128.22c1.54,114.54 -219.62,779.85 -268.47,940.89 -38.37,126.51 -275.43,858.33 -268.22,921.39 93.39,39.58 729.25,15.37 881.19,15.61 238.18,0.4 660.48,26.71 872.49,-42.6 218.78,-71.53 377.26,-242.27 444.68,-462.9 33.8,-110.56 77.75,-234.15 100.01,-349.14 47.9,-247.61 -84.59,-284.16 -109.43,-325.9 289.08,-156.6 366.46,-562.17 361.09,-858.21 -38.72,-36.69 -85.17,-192.59 -298.79,-245.37 -124.68,-30.8 -1530.78,-21.75 -1553.12,-12.68 -106.73,90.44 -52.6,327.61 -161.43,418.91z"/>
   <path class="fil17 str1" d="M15807.54 17249.22c-90.77,238.76 -214.75,754.48 -292.59,912.6 -79.74,161.99 -300.43,119.19 -460.59,119.35 -165.72,0.16 -478.55,67.7 -419.13,-171.26l289.1 -905.99c82.25,-166.48 297.28,-120.94 466.11,-121.04 129.93,-0.1 502.47,-58.19 417.1,166.34zm-1457.04 -168.74l-391.98 1272.36c-57.33,253.02 94.59,432.67 339.54,472.18 191.79,30.93 624.45,8.95 840.31,8.29 623.24,-1.94 794.89,-108.99 984.86,-683.22 69.79,-210.92 133.66,-427.81 200.96,-639.91 62.19,-196.02 173.74,-476.94 153.8,-676.69 -42.14,-99.73 -64.15,-169.67 -151.77,-234.38 -150.31,-110.99 -790.53,-68.02 -1036.59,-70.62 -248.8,-2.61 -418.45,-16.5 -633.56,121.06 -124.69,79.75 -268.39,272.79 -305.57,430.93z"/>
  </g>
 </g>
</svg>
