<?xml version="1.0" encoding="UTF-8"?>
<!DOCTYPE svg PUBLIC "-//W3C//DTD SVG 1.1//EN" "http://www.w3.org/Graphics/SVG/1.1/DTD/svg11.dtd">
<!-- Creator: CorelDRAW 2021 (64 Bit) -->
<svg xmlns="http://www.w3.org/2000/svg" xml:space="preserve" width="303.129mm" height="87.1343mm" version="1.1" style="shape-rendering:geometricPrecision; text-rendering:geometricPrecision; image-rendering:optimizeQuality; fill-rule:evenodd; clip-rule:evenodd"
viewBox="0 0 29533.13 8489.28"
 xmlns:xlink="http://www.w3.org/1999/xlink"
 xmlns:xodm="http://www.corel.com/coreldraw/odm/2003">
 <defs>
  <style type="text/css">
   <![CDATA[
    .str2 {stroke:#3C291C;stroke-width:25.78;stroke-miterlimit:22.9256}
    .str0 {stroke:#3C291C;stroke-width:19.49;stroke-miterlimit:22.9256}
    .str1 {stroke:#F2C694;stroke-width:19.49;stroke-miterlimit:22.9256}
    .fil15 {fill:none}
    .fil9 {fill:#121516}
    .fil8 {fill:#15191A}
    .fil0 {fill:#3C291C}
    .fil13 {fill:#F0C18A}
    .fil14 {fill:#F2C591}
    .fil5 {fill:#F2C594}
    .fil2 {fill:#F2C695}
    .fil3 {fill:#F3C596}
    .fil12 {fill:#FAF6EE}
    .fil7 {fill:#FAF8F8}
    .fil11 {fill:#FBF8F3}
    .fil6 {fill:#FBFAFA}
    .fil10 {fill:#FCF7F1}
    .fil4 {fill:#FCFBFB}
    .fil1 {fill:#FCFCFC}
   ]]>
  </style>
 </defs>
 <g id="Camada_x0020_1">
  <metadata id="CorelCorpID_0Corel-Layer"/>
  <g id="_2482642733728">
   <g>
    <path class="fil0 str0" d="M25150.28 6502.18c-880.84,-201.31 -1637.31,-803.86 -242.13,-1087.46 411.02,-83.54 866.91,-121.37 1285.89,-149.73 458.51,-31.04 925.2,-55.55 1384.7,-57.75 243.86,12.41 692.31,-34.69 908.86,54.9 -80.96,10.71 -250.65,1.75 -347.93,4.39 -669.22,18.19 -1654.54,110.24 -2272.38,261.56 -206.31,50.53 -982.91,247.72 -819.38,582.49 68.52,140.25 277.19,248.69 415.27,308.88 86.54,37.72 172.76,68.26 262.4,97.51 66.06,21.55 218.3,55.98 266.94,86.33l-27.75 29.83c-253.54,-2.09 -567.54,-73.37 -814.5,-130.97zm2518.77 -1745.25c-5.13,23.42 -61.06,125.57 -76.26,150.57 -42.78,70.43 -75.99,72.19 -153.75,74.99 -149.42,5.37 -298.42,10.86 -447.95,13.5 -150.43,2.67 -300.45,4.31 -450.9,4.59 -191.04,0.35 -229.33,39.74 -331.76,-128.82 -126.83,-208.73 2.88,-168.07 179.96,-168.25l906.77 -9.03c73.69,-1.41 147.74,-3.05 221.39,-5.27 50.3,-1.52 172.04,-21.39 152.5,67.71zm-3889.52 428.26l-0.31 1.12c-16.6,21.63 -46.27,-276.94 -45.96,-308.02 1.03,-103.22 16.8,-209.54 48.5,-307.89 50.1,-155.44 184.38,-363.45 374.27,-335.03 176.36,26.38 272.49,244.37 315.14,395.88 63.29,224.86 64.04,407.31 22.21,635.7l-24.05 -282.34c-12.46,-89.51 -30.69,-165.13 -56.76,-251.33 -38.09,-125.96 -123.51,-307.34 -254.99,-356.44 -165.57,-61.82 -284.17,133.99 -326.84,264.2 -66.36,202.47 -58.65,336.67 -51.22,544.14zm1084.34 -1070.14c-0.16,-74.95 534.19,44.96 597.46,59.69 89.96,20.95 189.81,46.42 275.75,79.86 51.22,19.92 200.14,105.21 185.3,170.88 -14.77,65.38 -556.74,-11 -633.77,-21.73 -83.32,-11.61 -214.58,-23.63 -282.56,-73.03 -37.42,-27.19 -142.11,-172.62 -142.19,-215.68zm561.71 -24.67c-27.62,1.04 -642.15,-104.04 -678.53,-68.89 -23.67,32.42 109.15,243.41 136.77,284 74.78,109.86 150.78,141.8 278.54,163.83 128.26,22.13 259.31,38.61 388.61,53.82 94.16,11.09 310.31,25.81 389.1,53.04 2.11,26.09 -614.24,-11.56 -671.94,-17.04 -221.83,-21.06 -365.52,-11.55 -491,-216.23 -96.65,-157.67 -139.97,-315.79 -333.43,-373.45 -168.92,-50.35 -432.8,-75.73 -613.19,-99.66 93.47,-106.12 -15.3,-105.85 142.56,-88.87 218.47,23.49 440.08,59.19 655.96,98.52 294.44,53.64 514.93,116.84 796.56,210.93zm-2490.07 -354.53c128.7,-12.01 302.98,-1.26 434.13,5.28 118.57,5.9 264.73,-6.09 334.94,109.28l-769.06 -114.56zm282.8 -188.96c-24.64,-145.83 181.03,-140.71 272.96,-146.79 161.43,-10.69 225.39,-32.84 271.46,140.06 41.25,154.8 56.35,138.88 -228.17,110.95 -81.34,-7.99 -298.85,-1.12 -316.26,-104.22zm-408.57 -364.22c90.49,-963.6 866.52,-1660.97 1830.76,-1674.83 957.57,-13.75 1782.07,668.85 1867.56,1635.69 49.05,19.56 286.24,207.49 343.4,252.55 67.12,52.9 25.94,12.77 100.51,11.14 72.13,-1.58 173.28,17.46 212.87,87.48 36.02,63.71 -9.09,87.01 -10.12,111.3 32.7,15.53 222.76,45.88 280.18,61.34 90.47,24.35 176.46,49.24 264.18,82.67 159.93,60.94 306.51,143.94 421.18,272.61 202,226.64 259.39,862.15 105.19,1108.85 3.44,-180.71 34.29,-300.87 -7.33,-491.56 -25.35,-116.18 -73.57,-91.87 -168.64,-86.72 -75.91,4.12 -186.86,12.4 -260.15,8.36 49.37,-26.97 214.69,-65.22 284.72,-92.26 55.44,-21.4 94.54,-32.54 83.92,-102.29 -5.39,-35.41 -26.56,-122.14 -47.3,-143.37 -5.61,86.17 17.48,142.04 -89.6,170.8 -46.11,12.38 -188.54,46.82 -227.81,29.18 -42.89,-58.23 29.06,-164.42 80.49,-193.68 45.65,-25.98 158.61,-77.03 180.09,-118.97 -14.88,-66.12 -231.35,-193.63 -295.6,-225.26 -107.33,-52.84 -269.38,-113.19 -386.6,-133.66 -9.64,9.16 294.48,126.61 358.03,271.4 50.42,114.9 -60.56,138.77 -144.99,142.58 -101.19,4.56 -201.7,10.3 -303.05,13.37 -206.6,6.26 -413.33,8.24 -620.02,8.09 -149.32,-0.11 -472.99,22.82 -597.5,-29.97 -607.74,-257.65 -1383.64,-378.64 -2035.09,-480.04 -64.08,-144.77 -109.85,-304.67 -178.7,-454.88 -79.32,-173.07 -120.21,-309.17 -342.02,-292.84 -425.17,31.28 -540.69,340.54 -861.59,403.94 32.94,-27.79 156.83,-119.31 163.02,-151.01zm-1424.6 484.81c-42.49,-58.62 -23.05,-134.52 47.5,-149.53 38.44,-8.17 1099.54,-2.79 1221.57,-2.6 56.61,0.09 177.61,-13.54 219.31,24.7 63.36,58.1 15.27,118.93 -37.5,155.96 27.32,1.73 22.12,65.67 24.34,91.2 2.84,32.48 9.12,70.73 13.37,103.82 8.67,67.66 18.37,141.44 29.62,206.69l-305.49 8.19c133.88,-8.66 292.64,-1.5 429.34,-1.75 110.34,-0.2 326.43,-11.98 424.69,2.1 60.4,8.66 97.64,72.56 73.23,129.4 -27.72,64.49 -98.15,55.43 -155.29,55.58 -141.83,0.39 -287.37,-3.76 -428.7,0.53l46.41 201.8c108.29,3.83 221.83,1.8 330.53,1.25 127.27,-0.65 160.54,112.12 77.27,166.13 -42.9,27.83 -563.04,14.03 -654.38,14.07 -222.63,0.1 -445.27,0 -667.9,-0.07 -111.31,-0.03 -222.63,-0.07 -333.95,-0.13 -95.86,-0.06 -218.49,27.25 -290.58,-45.52 12.56,86.6 277.8,58.22 351.3,58.22 410.57,0 821.14,0 1231.72,0l100.13 238.91c-47.04,39.53 -214.55,21.31 -290.96,21.31l-624.54 0c-56.7,0 -93.52,-10.37 -124.27,31.88 -25.32,34.8 -1.21,95.57 28.86,106.92l28.64 0c-35.95,-20.68 -95.19,-52.39 -41.26,-108.01 35.35,-36.46 111.46,-22 160.07,-22.23l1092.93 0.08c49.19,0.19 117.53,-4.32 121.48,61.17 4.21,69.77 -57.55,71.92 -108.41,72.27 -119.78,0.83 -239.97,-2.59 -360.03,-2.38 -242.38,0.45 -486.23,-1.48 -728.62,-4.12 17.82,25.47 360.65,11.89 416.36,11.89 141.67,0 283.35,0.1 425.02,0.01 119.05,-0.08 77.2,-5.21 153.91,58.61 31.61,26.29 95.95,64.04 136.52,75.99 53.86,15.88 103.36,46.69 159.47,53.05 23.67,2.69 158.82,30.69 178.99,37.86l-177.22 -2.33 -0.57 -12.04 34.47 -4.9c-50.8,-6.85 -50.52,18.72 -125.35,14.04 -29.2,-1.82 -90.66,5.23 -130.35,5.23l-715.6 0c-53.12,0 -93.4,-8.23 -138.79,-8.67 94.6,221.55 448.94,529.64 627.52,712.62 438.06,448.86 900.66,893.79 1341.75,1342.73 89.54,91.13 244.67,284.64 371.61,294.35 150.81,11.53 290.46,-177.19 390.78,-277.27 447.83,-446.72 888.18,-902.85 1338.36,-1346.27 112.54,-110.85 225.12,-223.79 334.26,-337.97 166.28,-173.95 152.51,-224.72 404.35,-267.89 397.06,-68.07 787.13,-153.53 1193.82,-150.66l0 -34.7c-35.57,0.05 -41.37,-11.94 -61.11,-16.51 -15.72,-3.65 -59,-9.94 -78.77,-12.74 -37.16,-5.28 -144.78,-2.54 -152.66,-30.18 -4.63,-16.22 51.64,-92.32 60.14,-116.57 30.89,-88.15 39.79,-240.15 45.49,-331.66 2.08,-33.62 14.11,-42.75 6.72,-78.86 -8.45,-41.3 -5.92,-49.72 -5.6,-90.75 0.4,-50.49 -40.12,-271.33 -60.22,-317.1 -97.16,-221.21 -132.98,-277.91 -341.3,-409.01 -79.46,-50.01 -166.06,-89.04 -254.78,-118.2 -31.37,-10.31 -282.76,-89.77 -285.32,-92.01 -16.27,-25.13 -8.92,-265.27 -10.78,-314.46 -9.78,-260.28 -87.88,-583.38 -186.15,-820.08 -396.92,-955.99 -1330.02,-1628.35 -2369.32,-1669.61 -722.71,-28.68 -1415.55,214.09 -1949.15,704.92 -503.49,463.13 -863.27,1132.79 -862.75,1826.21 192.27,0 390.01,-4.53 581.5,-0.33 40.82,0.9 83.41,9.01 134.11,9.01 113.44,0 198.17,-22.29 228.68,61.91 7.46,20.61 29.66,95.19 30.82,115.11l-58.37 26.11c-58.91,-35.66 -26.72,-84.24 -159.26,-70.12 -57.83,6.16 -619.03,1.44 -705.43,1.44 -65.29,0 -424.36,9.07 -457.48,1.99 -46.04,-9.84 -43.55,6.53 -95.98,-3.98 -26.18,-5.23 -73.17,2.32 -95.9,16.19 -49.76,30.38 -74.77,137.4 -16.85,149.75z"/>
    <path class="fil1 str0" d="M24535.55 2889.28c312.54,-6.15 621.8,-2.93 933.95,14.88 294.09,16.79 525.96,14.04 785.67,168.72 193.93,115.5 379.53,257.34 554.32,399.84 188.7,153.84 224.36,163.8 43.99,157.85 -154.57,-5.1 -318.2,-0.29 -473.76,-0.13 -622.9,0.65 -1282.44,20.93 -1901.2,-8.61 -182.95,-8.73 -229.28,2.95 -310.14,-166.65 -51.24,-107.45 -103.32,-214.54 -156.67,-320.96 -81.65,-162.87 -167.73,-222.63 68.76,-226.75 150.04,-2.61 303.46,-15.2 455.08,-18.19zm-1416.28 32.6c-50.16,35.96 -119.29,68.8 -177.47,110.23 -88.95,63.33 -77.83,90.2 -132.05,150.56 -6.19,31.7 -130.08,123.23 -163.02,151.01 320.9,-63.41 436.42,-372.66 861.59,-403.94 221.81,-16.33 262.7,119.77 342.02,292.84 68.85,150.21 114.62,310.11 178.7,454.88 651.45,101.4 1427.34,222.4 2035.09,480.04 124.51,52.79 448.19,29.86 597.5,29.97 206.69,0.16 413.41,-1.82 620.02,-8.09 101.34,-3.07 201.86,-8.81 303.05,-13.37 84.43,-3.81 195.41,-27.68 144.99,-142.58 -63.54,-144.8 -367.66,-262.25 -358.03,-271.4 117.22,20.47 279.28,80.82 386.6,133.66 64.24,31.63 280.72,159.14 295.6,225.26 -21.48,41.94 -134.44,92.98 -180.09,118.97 -51.43,29.26 -123.38,135.44 -80.49,193.68 39.27,17.64 181.7,-16.8 227.81,-29.18 107.08,-28.76 83.99,-84.63 89.6,-170.8 20.74,21.24 41.91,107.96 47.3,143.37 10.62,69.75 -28.49,80.88 -83.92,102.29 -70.03,27.05 -235.36,65.3 -284.72,92.26 73.29,4.04 184.25,-4.24 260.15,-8.36 95.07,-5.15 143.29,-29.46 168.64,86.72 41.62,190.69 10.77,310.85 7.33,491.56 154.2,-246.71 96.8,-882.22 -105.19,-1108.85 -114.67,-128.67 -261.25,-211.67 -421.18,-272.61 -87.72,-33.43 -173.71,-58.32 -264.18,-82.67 -57.42,-15.46 -247.49,-45.81 -280.18,-61.34 1.03,-24.29 46.14,-47.59 10.12,-111.3 -39.58,-70.02 -140.74,-89.06 -212.87,-87.48 -74.57,1.64 -33.39,41.77 -100.51,-11.14 -57.16,-45.06 -294.36,-232.99 -343.4,-252.55l-291.28 -188.07c-263.19,-112.47 -431.49,-130.47 -713.45,-159.25 -271.66,-27.73 -550.87,-43.74 -823.89,-48.99 -488.03,-9.37 -1109.23,-23.07 -1560.17,174.65z"/>
    <path class="fil0" d="M24535.55 2889.28c-151.63,2.99 -305.05,15.58 -455.08,18.19 -236.5,4.12 -150.42,63.88 -68.76,226.75 53.35,106.42 105.44,213.5 156.67,320.96 80.86,169.6 127.19,157.92 310.14,166.65 618.76,29.54 1278.3,9.27 1901.2,8.61 155.56,-0.17 319.19,-4.97 473.76,0.13 180.37,5.95 144.71,-4.01 -43.99,-157.85 -174.79,-142.51 -360.39,-284.34 -554.32,-399.84 -259.7,-154.68 -491.57,-151.93 -785.67,-168.72 -312.15,-17.81 -621.41,-21.02 -933.95,-14.88z"/>
    <path class="fil2" d="M22809.74 3182.67c54.22,-60.37 43.1,-87.24 132.05,-150.56 58.18,-41.43 127.32,-74.27 177.47,-110.23l16.34 -54.01 25.28 -75.61c7.73,-26.26 24.37,-75.31 39.78,-95.88l0.94 -3.87c7.45,-23.78 48.84,-109.66 64.12,-125.93l1.33 -4.18 23.19 -40.06 40.53 -62.22 18.85 -27.84c22.27,-41.05 143.48,-185.66 174.72,-209.98l18.95 -17.33 16.26 -15.56c13.61,-20.1 95.51,-86.47 120.74,-105.9 40.73,-31.38 86.26,-64.61 130.37,-91.24l114.29 -64.52 16.06 -7.24c15.98,-15 99.17,-50.15 123.27,-57.24l111.13 -40.33 84.87 -24.55c80.3,-34.16 298.55,-53.92 388.91,-54.9 72.45,-0.78 345.42,14.96 400.5,46.9l33.26 6.74c112.07,25.28 248.57,83.34 349.75,137.96 51.71,27.92 103.24,57.91 150.87,92 33.9,24.28 110.2,75.67 134.46,103.77 47.24,46.28 100.89,87.78 143.16,138.91 44.42,53.74 83,100.69 123.85,158.14 62.97,88.56 163.87,269.19 189.25,373.01l5.93 24.08 36.56 130.45 291.28 188.07c-85.49,-966.84 -909.99,-1649.44 -1867.56,-1635.69 -964.24,13.85 -1740.27,711.23 -1830.76,1674.83z"/>
    <path class="fil1" d="M25150.28 6502.18c246.96,57.6 560.97,128.88 814.5,130.97l27.75 -29.83c-48.65,-30.35 -200.89,-64.78 -266.94,-86.33 -89.64,-29.25 -175.87,-59.78 -262.4,-97.51 -138.08,-60.19 -346.75,-168.64 -415.27,-308.88 -163.53,-334.77 613.06,-531.96 819.38,-582.49 617.84,-151.32 1603.16,-243.37 2272.38,-261.56 97.28,-2.64 266.97,6.31 347.93,-4.39 -216.55,-89.59 -665,-42.49 -908.86,-54.9 -172.12,24.24 -407.76,17.57 -589.56,28.48 -190.73,11.46 -383.87,24.94 -574.07,42.91 -404.65,38.22 -1677.09,184.1 -1852.57,609.8 -134.33,325.88 390.8,508.3 587.75,613.74z"/>
    <path class="fil3" d="M25150.28 6502.18c-196.95,-105.45 -722.08,-287.87 -587.75,-613.74 175.49,-425.7 1447.93,-571.58 1852.57,-609.8 190.2,-17.97 383.34,-31.45 574.07,-42.91 181.8,-10.91 417.45,-4.24 589.56,-28.48 -459.5,2.19 -926.18,26.7 -1384.7,57.75 -418.98,28.36 -874.87,66.18 -1285.89,149.73 -1395.18,283.59 -638.72,886.14 242.13,1087.46z"/>
    <path class="fil1" d="M27669.05 4756.94c19.53,-89.1 -102.2,-69.23 -152.5,-67.71 -73.66,2.22 -147.7,3.86 -221.39,5.27l-906.77 9.03c-177.07,0.18 -306.79,-40.48 -179.96,168.25 102.43,168.56 140.72,129.17 331.76,128.82 150.46,-0.28 300.48,-1.92 450.9,-4.59 149.53,-2.64 298.53,-8.14 447.95,-13.5 77.76,-2.8 110.97,-4.56 153.75,-74.99 15.2,-25 71.12,-127.15 76.26,-150.57z"/>
    <path class="fil2" d="M21442.58 4613.82l5.91 15.5c72.09,72.77 194.72,45.46 290.58,45.52 111.32,0.06 222.64,0.1 333.95,0.13 222.63,0.07 445.27,0.17 667.9,0.07 91.34,-0.04 611.48,13.76 654.38,-14.07 83.27,-54.01 50,-166.79 -77.27,-166.13 -108.7,0.56 -222.24,2.58 -330.53,-1.25 -278.19,2.55 -558.04,-0.27 -836.42,-0.43 -138.79,-0.08 -277.57,-0.08 -416.36,-0.06 -99.03,0.01 -327.04,-40.13 -292.16,120.72z"/>
    <path class="fil2" d="M21385.13 3667.48c56.53,49.96 256.61,28.94 336.6,28.97 124.33,0.05 248.65,-0.31 372.98,0.05 244.57,0.71 497.64,5.85 741.29,-0.5 52.77,-37.03 100.86,-97.87 37.5,-155.96 -41.7,-38.24 -162.7,-24.61 -219.31,-24.7 -122.03,-0.19 -1183.13,-5.57 -1221.57,2.6 -70.55,15.01 -89.98,90.91 -47.5,149.53z"/>
    <path class="fil4" d="M24629.02 3879.46c-215.88,-39.33 -437.49,-75.03 -655.96,-98.52 -157.85,-16.97 -49.08,-17.24 -142.56,88.87 180.39,23.93 444.27,49.31 613.19,99.66 193.45,57.66 236.78,215.78 333.43,373.45 125.48,204.69 269.16,195.17 491,216.23 57.7,5.48 674.05,43.13 671.94,17.04 -78.79,-27.23 -294.93,-41.95 -389.1,-53.04 -129.3,-15.21 -260.35,-31.69 -388.61,-53.82 -127.76,-22.04 -203.76,-53.97 -278.54,-163.83 -27.62,-40.59 -160.43,-251.58 -136.77,-284 36.38,-35.15 650.91,69.93 678.53,68.89 -281.62,-94.09 -502.12,-157.29 -796.56,-210.93z"/>
    <path class="fil2" d="M20864.49 4041.32c15.62,68.5 92.56,63.31 146.05,63.11 70.77,-0.25 141.64,0.11 212.43,0.16 140.22,0.08 280.47,0.41 420.69,0.18 202.37,-0.34 434.69,3.87 633.44,0.15 61.91,-1.16 110.63,-36.41 97.13,-103.83 -14.82,-73.9 -87.3,-66.87 -145.11,-66.53l-1053.86 -0.02c-70.19,0.05 -142.92,-1.98 -212.73,-0.37 -62.35,1.44 -113.59,38.96 -98.04,107.16z"/>
    <path class="fil1" d="M25922.38 4425.49c14.84,-65.67 -134.08,-150.95 -185.3,-170.88 -85.94,-33.44 -185.78,-58.91 -275.75,-79.86 -63.28,-14.73 -597.62,-134.64 -597.46,-59.69 0.08,43.05 104.76,188.48 142.19,215.68 67.98,49.41 199.24,61.42 282.56,73.03 77.03,10.73 619,87.11 633.77,21.73z"/>
    <path class="fil5" d="M22941.1 4291.78c141.33,-4.29 286.88,-0.14 428.7,-0.53 57.14,-0.16 127.57,8.9 155.29,-55.58 24.42,-56.84 -12.83,-120.74 -73.23,-129.4 -98.26,-14.09 -314.35,-2.31 -424.69,-2.1 -136.7,0.25 -295.47,-6.91 -429.34,1.75 -107.73,52.61 -91.1,165.67 3.05,183.66 60.79,11.62 264.84,2.19 340.22,2.2z"/>
    <path class="fil5 str1" d="M22149.38 5086.55l53.76 -2.37 56.38 0.24 26.02 -1.09c242.39,2.64 486.24,4.57 728.62,4.12 120.06,-0.21 240.26,3.21 360.03,2.38 50.86,-0.35 112.62,-2.5 108.41,-72.27 -3.96,-65.49 -72.29,-60.99 -121.48,-61.17l-1092.93 -0.08c-48.62,0.23 -124.73,-14.22 -160.07,22.23 -53.93,55.62 5.31,87.32 41.26,108.01z"/>
    <path class="fil6" d="M23779.53 5185.2c-7.43,-207.47 -15.14,-341.67 51.22,-544.14 42.67,-130.21 161.27,-326.02 326.84,-264.2 131.48,49.09 216.89,230.47 254.99,356.44 26.07,86.2 44.3,161.83 56.76,251.33l24.05 282.34c41.83,-228.4 41.08,-410.84 -22.21,-635.7 -42.64,-151.51 -138.78,-369.49 -315.14,-395.88 -189.89,-28.42 -324.17,179.6 -374.27,335.03 -31.7,98.35 -47.47,204.67 -48.5,307.89 -0.31,31.08 29.35,329.65 45.96,308.02l0.31 -1.12z"/>
    <path class="fil1" d="M23218.31 3546.9c17.41,103.1 234.92,96.23 316.26,104.22 284.52,27.93 269.42,43.85 228.17,-110.95 -46.07,-172.9 -110.03,-150.75 -271.46,-140.06 -91.93,6.08 -297.6,0.96 -272.96,146.79z"/>
    <path class="fil7" d="M23704.57 3850.42c-70.21,-115.37 -216.37,-103.38 -334.94,-109.28 -131.15,-6.54 -305.43,-17.29 -434.13,-5.28l769.06 114.56z"/>
    <path class="fil8" d="M20864.49 4041.32c-15.55,-68.2 35.69,-105.72 98.04,-107.16 69.82,-1.61 142.55,0.42 212.73,0.37l1053.86 0.02c57.81,-0.34 130.29,-7.37 145.11,66.53 13.5,67.42 -35.22,102.67 -97.13,103.83 -198.75,3.72 -431.08,-0.49 -633.44,-0.15 -140.22,0.23 -280.47,-0.1 -420.69,-0.18 -70.79,-0.05 -141.66,-0.41 -212.43,-0.16 -53.5,0.19 -130.44,5.39 -146.05,-63.11zm63.56 -112.76c-60.53,13.24 -95.77,73.34 -68.79,134.03 27.64,62.18 115.05,47.59 168.59,48.09 79.77,0.72 1265.54,4.46 1290.99,-1.36 53.97,-12.34 78.48,-78.68 58.17,-128.07 -30.18,-73.39 -95.68,-56.55 -161,-56.89l-1075.44 -0.14c-54.84,0 -164.16,-6.25 -212.52,4.34z"/>
    <path class="fil9" d="M22259.52 5084.43l-56.38 -0.24c3.49,16.93 -4.73,7.23 8.67,11.04l39.04 0c13.25,-3.74 4.63,2.42 8.67,-10.79z"/>
   </g>
   <g>
    <path class="fil10 str2" d="M5220.7 2645c-65.71,178.94 -102.09,206.75 -193.59,354.32 -54.65,88.18 -780.29,2264.51 -929.3,2667.31 -26.66,72.06 -72.6,158.63 -46.45,219.54 56.54,25.41 770.62,29.02 858.95,13.05 106.71,-19.29 130.57,-179.61 162.63,-275.94l548.07 -1562.68c30.1,-87.72 33.33,-64.16 50.27,-77.62 116.5,210.33 227.92,448.32 337.64,665.77l499.05 1005.77c151.09,309.15 98.79,249.67 741.51,247.88 498.53,-1.4 357.99,54.26 551.08,-455.1 47.91,-126.36 91.19,-243 132.9,-369.57 81.13,-246.11 182.66,-490.51 263.51,-740.6 160.48,-496.39 337.89,-1009.38 518.83,-1498.66 22.07,-86.61 87.04,-171.45 38.91,-233.86 -67.03,-45.69 -860.24,-33.26 -974.65,-4.4 -24.8,18.05 -295.46,846.14 -333.83,949.57 -30.55,82.4 -276.98,878.64 -340.23,934.21 -127.56,-151.15 -867.2,-1824.12 -1000.8,-1882.7 -67.2,-29.47 -376.44,-17.54 -469.56,-17.54 -261.06,0 -241.09,-26.71 -414.93,61.25z"/>
    <path class="fil11 str2" d="M8591.92 4338.25c-66.21,143.74 -49.74,2.86 -165.71,351.45 -70.29,211.28 -408.66,1121.27 -395.63,1198.89 95.63,39.46 422.54,17.6 545.83,17.42 148.08,-0.21 413.41,62.46 478.48,-102.37 66.23,-167.75 227.99,-741.89 302.87,-843.22 587.6,-74.66 1576.84,112.21 2093.45,-114.04 643.5,-281.85 623.77,-1020.98 820.63,-1382.94 38.57,-204.04 126.51,-361.49 17.63,-573.19 -78.57,-152.82 -212.98,-244.12 -380.39,-285.96 -224.71,-56.15 -1026.29,-23.27 -1306.45,-20.51 -263.87,2.6 -1092.31,-40.44 -1284.87,45.01 -184.32,81.81 -240.58,165.42 -319.26,343.12 -33.71,76.14 -197.5,402.01 -176.9,459.67 185.73,69.32 2299.82,-59.18 2390.62,49.9 58.69,70.53 -44.21,516.59 -247.11,595.94 -106.33,41.58 -1499.1,21.77 -1725.27,21.89 -351.08,0.18 -399.37,43.81 -647.92,238.91z"/>
    <path class="fil12 str2" d="M4950.98 2684.3c31.24,-152.17 -154.03,-100.83 -283.63,-100.92 -944.51,-0.51 -2143.38,-25.7 -3026.67,3.52 -198.63,43.82 -303.79,152.88 -393.37,326.19 -57.18,110.65 -243.48,418.85 -216.32,525.92l1355.2 9.19c-11.08,127.29 -149.54,464.23 -195.02,604.3 -58.49,180.09 -625.02,1780.68 -591.9,1824.99 64.3,54.33 398.47,24.62 503.9,24.33 102.45,-0.27 426.73,31.33 481.36,-40.75 48.55,-64.05 712.16,-2149.86 846.68,-2410.96 265.93,-9.36 875.41,48.44 1083.66,-68.43 155.91,-87.51 322.94,-525.78 436.11,-697.38z"/>
    <path class="fil13 str0" d="M12681.73 4274.23c-50.64,303.4 -499.23,1445.42 -481.4,1620.48 98.18,18.97 508.61,18.18 604.23,-3.32 70.33,-115.77 133.15,-418.46 185.37,-560.82l137.29 -435.09c3.72,-12.25 16.87,-64.24 19.01,-69.26l36.27 -54.2c2.17,-9.19 8.57,-9.22 13.29,-13.36 14.93,129.59 206.37,945.44 258.01,1013.37 155.94,43.28 228.71,-54.15 320.68,-162.24 153.06,-179.89 643.16,-768.51 743.48,-839.67 -47.41,225.5 -338.57,994.81 -329.79,1135.23l618.39 -8.75 725.73 -2320.65 3.98 -122.06c-117.07,-24.09 -576.38,-24.35 -677.59,32.11l-252.74 286.64c-50.41,81.38 -39.99,40.07 -89.19,88.8 -32.79,32.5 -44.5,74.93 -72.9,107.91l-177.69 179.25c-40.92,54.21 -17.55,54.52 -76.58,102.92 -78.91,64.72 -206.18,245.35 -295.46,328.93l-45.8 42.43c-2.49,-3.77 -8.93,8.09 -13.97,11.37 -4.09,-102.3 -54.77,-324.95 -85.79,-426.32 -40.63,-132.9 -64.72,-280.24 -101.69,-416.21 -33.08,-121.58 -42.18,-308.99 -181.77,-340.06 -68.96,-15.34 -432.15,-12.55 -495.8,3.16 -84.16,67.97 -204.99,667.72 -287.57,819.4z"/>
    <path class="fil14 str0" d="M18501.58 4945.13c158.32,-1.28 316.65,-1.02 475,-0.56 122.93,0.38 315.56,-36.24 406.54,46.69 11.67,79.84 -18.95,192.06 -69.99,257.27 -68.69,87.73 -159.52,71.56 -264.64,71.65 -163.8,0.13 -513.36,19.96 -656.05,-3.64l109.15 -371.4zm281.44 -907.67c138.91,-20.6 738.67,-30.93 830.39,26 26.97,71.77 -4.4,191.27 -48.6,254.81 -59.41,85.47 -152.1,74.97 -247.4,74.9 -210.03,-0.13 -427.37,-4.27 -638.32,3.59l103.92 -359.3zm-622.32 -136.82c1.65,122.23 -234.34,832.15 -286.47,1003.98 -40.95,135 -293.9,915.89 -286.21,983.17 99.66,42.24 778.15,16.41 940.27,16.66 254.16,0.43 704.77,28.5 931,-45.45 233.45,-76.33 402.55,-258.52 474.5,-493.94 36.06,-117.97 82.95,-249.85 106.71,-372.55 51.11,-264.21 -90.27,-303.21 -116.77,-347.76 308.46,-167.1 391.04,-599.86 385.3,-915.75 -41.31,-39.16 -90.87,-205.5 -318.82,-261.83 -133.05,-32.86 -1633.42,-23.21 -1657.25,-13.52 -113.89,96.5 -56.14,349.58 -172.26,446.99z"/>
    <path class="fil14 str0" d="M17198.16 4215.22c-96.87,254.77 -229.16,805.06 -312.22,973.79 -85.09,172.86 -320.58,127.18 -491.47,127.36 -176.84,0.17 -510.65,72.24 -447.23,-182.74l308.48 -966.73c87.76,-177.64 317.2,-129.05 497.37,-129.15 138.63,-0.11 536.14,-62.1 445.07,177.48zm-1554.75 -180.05l-418.27 1357.66c-61.16,269.99 100.93,461.69 362.31,503.85 204.65,33.01 666.32,9.55 896.65,8.85 665.03,-2.08 848.19,-116.3 1050.9,-729.03 74.46,-225.07 142.61,-456.51 214.43,-682.82 66.36,-209.16 185.39,-508.92 164.11,-722.06 -44.96,-106.41 -68.44,-181.05 -161.94,-250.09 -160.39,-118.44 -843.54,-72.58 -1106.09,-75.36 -265.48,-2.79 -446.51,-17.61 -676.04,129.18 -133.05,85.09 -286.38,291.07 -326.06,459.83z"/>
   </g>
  </g>
  <rect class="fil15" y="0" width="29533.13" height="8489.27"/>
 </g>
</svg>
